PathFileType	4	(X/Y/Z)	c:/Users/goper/Files/vsCode/490R/osim_files/C03/C03_SSW_03.trc
DataRate	CameraRate	NumFrames	NumMarkers	Units                	OrigDataRate	OrigDataStartFrame	OrigNumFrames
250.00	250.00	6	36	mm	250.0	1726	2301
                Frame#	Time	LPSIS			LASIS			LTH1			LTH2			LTH3			LTH4			LLFE			LMFE			LSH1			LSH2			LSH3			LSH4			LLMAL			LMMAL			LCAL			LMTP5			LTOE			LMTP1			RPSIS			RASIS			RTH1			RTH2			RTH3			RTH4			RLFE			RMFE			RSH1			RSH2			RSH3			RSH4			RLMAL			RMMAL			RCAL			RMTP1			RTOE			RMTP5		
		X1	Y1	Z1	X2	Y2	Z2	X3	Y3	Z3	X4	Y4	Z4	X5	Y5	Z5	X6	Y6	Z6	X7	Y7	Z7	X8	Y8	Z8	X9	Y9	Z9	X10	Y10	Z10	X11	Y11	Z11	X12	Y12	Z12	X13	Y13	Z13	X14	Y14	Z14	X15	Y15	Z15	X16	Y16	Z16	X17	Y17	Z17	X18	Y18	Z18	X19	Y19	Z19	X20	Y20	Z20	X21	Y21	Z21	X22	Y22	Z22	X23	Y23	Z23	X24	Y24	Z24	X25	Y25	Z25	X26	Y26	Z26	X27	Y27	Z27	X28	Y28	Z28	X29	Y29	Z29	X30	Y30	Z30	X31	Y31	Z31	X32	Y32	Z32	X33	Y33	Z33	X34	Y34	Z34	X35	Y35	Z35	X36	Y36	Z36

1726	6.90000	-1925.68506	1030.76282	318.07867	-2102.12524	972.47900	365.26300	-1937.61353	633.85516	397.13980	-1933.41675	571.86975	385.13492	-2012.21155	625.47455	387.73267	-1998.73718	566.11456	377.39890	-1940.93774	484.71582	368.68326	-1933.24304	484.97037	256.77414	-1851.36719	310.83398	367.67264	-1851.08997	264.21939	360.80576	-1912.00220	307.22040	370.16827	-1902.96497	260.69516	363.38983	-1873.86414	101.68766	329.68015	-1890.82910	111.73486	250.36325	-1803.22278	67.60107	298.49564	-2004.66772	49.71666	352.18207	-2036.42932	63.37851	297.92227	-2012.21143	50.80328	258.52438	-1934.69312	1023.15094	205.65041	-2108.52417	987.26715	161.07361	-2143.37988	612.84332	138.88504	-2171.35474	558.06055	152.04594	-2197.68896	641.58899	119.43108	-2234.56104	591.82330	126.71709	-2249.71094	523.29156	140.35988	-2249.42310	537.81720	252.57140	-2136.36987	348.04001	146.96284	-2134.47656	300.55630	147.58914	-2193.08057	336.49753	123.13970	-2182.15283	294.59158	126.80390	-2157.32544	140.32178	149.63429	-2192.00415	139.66524	222.79878	-2094.34399	107.49813	203.23105	-2300.49463	67.54770	193.27185	-2317.99609	83.31436	151.57021	-2250.63110	60.59375	99.96576
1727	6.90400	-1930.77258	1030.26172	317.71201	-2106.98975	971.71405	365.11667	-1940.90906	633.89075	396.65753	-1936.32642	571.94476	384.62238	-2015.42395	625.33594	387.33514	-2001.70203	565.91406	376.96228	-1943.43921	484.75436	368.22955	-1936.10840	484.89157	256.30997	-1852.91052	311.30374	367.13699	-1852.04309	264.95303	360.10284	-1913.37231	307.34329	369.76724	-1903.22571	260.03021	362.73749	-1874.15259	102.00975	329.37543	-1891.24805	111.90990	250.07771	-1803.40161	67.93150	298.27512	-2004.71643	49.65551	352.16476	-2036.57715	63.20970	297.91010	-2012.34106	50.70475	258.52448	-1939.96399	1022.62347	205.38350	-2114.04346	986.98151	161.06209	-2148.45776	612.18970	139.10544	-2176.33936	557.29736	152.17699	-2202.85645	640.94159	119.86784	-2239.41577	591.14111	127.09504	-2255.38721	522.87482	140.76242	-2254.51270	537.07153	252.98785	-2146.82104	344.64291	146.71078	-2146.95850	296.88034	147.31653	-2204.38477	334.70337	122.85976	-2194.27222	292.50308	126.63526	-2172.74048	138.15785	148.97182	-2208.21362	137.82309	222.41995	-2111.94702	102.94428	203.07498	-2318.97681	68.77046	193.02162	-2335.61792	84.86021	151.18819	-2269.17603	60.03589	99.84913
1728	6.90800	-1935.89673	1029.74744	317.37463	-2111.83862	971.00702	365.06497	-1944.02771	633.95416	396.11160	-1939.43237	571.95569	384.12439	-2018.74524	625.01538	386.94931	-2004.72253	565.67749	376.66907	-1946.02600	484.72604	367.82489	-1939.04932	484.87689	255.86882	-1854.65393	311.76810	366.77252	-1853.57080	265.27969	359.77469	-1914.94470	307.48862	369.37506	-1905.29871	261.04874	362.56244	-1874.47668	102.32943	329.01825	-1891.66003	112.07212	249.76303	-1803.70020	68.26616	298.05890	-2004.79065	49.60685	352.15451	-2036.75928	63.06949	297.91168	-2012.72095	50.61434	258.70151	-1945.35474	1022.07709	205.09134	-2119.51099	986.55890	161.06738	-2153.42749	611.41479	139.42499	-2181.19580	556.51349	152.28072	-2207.86963	640.17023	120.33067	-2244.41772	590.34467	127.44807	-2260.79810	522.28186	141.07646	-2260.45679	536.56445	253.88068	-2157.18896	341.27872	146.57355	-2158.17334	293.70743	147.03288	-2215.06250	333.09824	122.84530	-2206.13916	290.58047	126.52602	-2189.96094	134.85591	148.81496	-2224.49048	136.15912	222.04976	-2129.18604	98.61589	202.90105	-2337.62183	70.81123	192.60188	-2353.25464	86.57150	150.88152	-2287.38330	59.82505	99.54308
1729	6.91200	-1941.18103	1029.05981	317.02353	-2116.95605	970.24194	364.99225	-1947.48633	634.04279	395.66824	-1942.47534	572.03809	383.54880	-2021.93506	624.59479	386.79398	-2007.74158	565.42200	376.34610	-1948.65417	484.79303	367.30402	-1941.98877	484.81079	255.40329	-1856.17529	312.32254	366.30652	-1854.75806	265.82770	359.35660	-1916.42236	307.58136	369.02051	-1906.39941	261.24969	362.22339	-1874.88171	102.63412	328.73267	-1892.16943	112.23627	249.42998	-1803.95703	68.56600	297.83792	-2004.85413	49.57410	352.17456	-2036.90247	62.88285	297.90613	-2012.80908	50.48525	258.66595	-1950.77783	1021.38403	204.75868	-2125.00708	986.00360	160.98598	-2158.07861	610.29785	140.12054	-2185.98779	555.58044	152.58788	-2212.57715	639.18469	120.75352	-2249.18872	589.36615	127.71828	-2266.23218	521.65887	141.31303	-2264.42554	535.24817	253.80167	-2167.53198	337.98383	146.31476	-2169.60547	290.58221	146.65700	-2225.39258	331.57495	122.76597	-2217.92310	288.76715	126.40696	-2206.16016	132.43593	148.56075	-2240.59961	134.77049	221.84451	-2146.39233	94.56147	202.71574	-2353.91748	70.87112	191.59109	-2370.96436	88.66082	150.75575	-2305.66357	59.94292	99.36906
1730	6.91600	-1946.29004	1028.53625	316.70541	-2122.04688	969.55457	364.91940	-1950.74231	634.02246	395.15723	-1945.47034	572.03955	382.89548	-2025.16968	624.24225	386.42786	-2010.81848	565.11853	375.98764	-1951.32056	484.79269	366.87347	-1944.94824	484.67386	254.91177	-1857.66516	312.85217	365.74863	-1856.06738	266.34039	358.81619	-1917.93140	307.73465	368.61560	-1907.86951	261.42242	361.93689	-1875.24841	102.99472	328.39484	-1892.68359	112.39960	249.07922	-1804.14844	68.95412	297.60791	-2004.88855	49.53305	352.17880	-2037.03931	62.75294	297.93286	-2012.93921	50.39631	258.64429	-1956.10974	1020.74298	204.49214	-2130.45776	985.42865	160.93700	-2162.78027	609.76208	139.85254	-2190.69531	554.53619	152.99420	-2217.33472	638.12592	121.06632	-2253.88110	588.30023	128.02986	-2271.59814	520.97205	141.54297	-2269.27563	534.22394	254.13290	-2177.71338	334.88940	146.04996	-2181.33252	287.40829	146.57495	-2235.95410	330.10678	122.76825	-2229.60327	287.14148	126.26337	-2222.31519	130.26936	148.31737	-2256.66284	133.65196	221.60529	-2163.64697	90.65580	202.55475	-2372.90942	74.15668	192.36166	-2387.99365	91.21265	150.56609	-2324.09912	60.13838	99.57575
1731	6.92000	-1951.59619	1027.87622	316.33954	-2127.00903	968.74170	364.83975	-1954.03882	633.98798	394.57507	-1948.62891	572.14819	382.33401	-2028.63525	623.98962	386.09448	-2013.95459	564.88464	375.59293	-1953.86719	484.72156	366.44385	-1947.89429	484.63516	254.43353	-1859.22803	313.40707	365.10715	-1857.30310	266.93402	358.18854	-1919.42822	307.88644	368.15280	-1908.96606	261.69116	361.46097	-1875.57520	103.39554	328.04166	-1893.11438	112.64439	248.74402	-1804.29199	69.36762	297.35291	-2004.91711	49.51675	352.14880	-2036.99646	62.52956	297.73898	-2013.05066	50.30347	258.61481	-1961.56482	1020.05353	204.13277	-2135.99243	984.87891	160.94875	-2167.42529	608.40192	140.51799	-2195.20557	553.36273	153.41716	-2221.83984	636.91217	121.37875	-2258.44482	587.06854	128.30952	-2276.77637	520.17926	141.73045	-2274.03955	533.04596	254.49646	-2186.90747	332.25757	145.72951	-2193.02197	284.31021	146.35535	-2246.14014	328.74426	122.62914	-2241.07227	285.60965	126.10037	-2238.64185	128.20465	148.33826	-2272.38428	132.77899	221.42273	-2180.74097	87.07539	202.37552	-2390.53442	76.74775	192.43130	-2405.09424	94.07614	150.56006	-2342.22314	60.99453	99.59850
